<?xml version="1.0" encoding="UTF-8" standalone="no"?>
<!DOCTYPE svg PUBLIC "-//W3C//DTD SVG 1.1//EN" "http://www.w3.org/Graphics/SVG/1.1/DTD/svg11.dtd">
<svg width="100%" height="100%" viewBox="0 0 476 133" version="1.1" xmlns="http://www.w3.org/2000/svg" xmlns:xlink="http://www.w3.org/1999/xlink" xml:space="preserve" xmlns:serif="http://www.serif.com/" style="fill-rule:evenodd;clip-rule:evenodd;stroke-linejoin:round;stroke-miterlimit:2;">
    <g transform="matrix(1,0,0,1,-101.297,-440.216)">
        <path d="M551.289,448.216C584.801,463.88 579.174,559.601 550.289,568.439C547.989,569.142 428.912,568.794 385.489,568.439C363.399,568.258 333.255,512.309 333.255,512.309L352.871,512.309L352.871,502.845L327.707,502.845L327.707,503.471L325.165,499.422L325.165,482.7L314.668,482.7C314.668,482.7 292.365,444.169 307.511,444.216C358.614,444.377 534.993,440.6 551.289,448.216ZM568.634,494.959L569.781,493.812L569.781,482.7L529.633,482.7L529.633,493.812L530.78,494.959L542.968,494.959L542.968,529.945L556.446,529.945L556.446,494.959L568.634,494.959ZM519.524,529.945L533.433,529.945L516.155,482.7L504.684,482.7L487.406,529.945L501.314,529.945L503.68,523.564L517.158,523.564L519.524,529.945ZM408.707,512.309L433.871,512.309L433.871,502.845L408.707,502.845L408.707,512.309ZM470.487,529.945L483.75,529.945L483.75,482.7L471.849,482.7C471.18,482.7 470.678,482.986 470.343,483.56L459.948,500.766L449.624,483.56C449.194,482.986 448.668,482.7 448.047,482.7L436.146,482.7L436.146,529.945L449.481,529.945L449.481,507.864L458.084,522.059C458.323,522.441 458.633,522.692 459.016,522.812C459.398,522.931 459.709,522.991 459.948,522.991C460.234,522.991 460.569,522.931 460.951,522.812C461.334,522.692 461.644,522.441 461.883,522.059L470.487,507.864L470.487,529.945ZM381.014,531.379C384.455,531.379 387.705,530.722 390.764,529.407C393.823,528.093 396.488,526.313 398.758,524.066C401.028,521.82 402.821,519.167 404.135,516.108C405.449,513.05 406.106,509.799 406.106,506.358C406.106,502.917 405.449,499.667 404.135,496.608C402.821,493.549 401.028,490.896 398.758,488.65C396.488,486.404 393.823,484.623 390.764,483.309C387.705,481.995 384.455,481.337 381.014,481.337C377.573,481.337 374.323,481.995 371.264,483.309C368.205,484.623 365.54,486.416 363.27,488.686C361,490.956 359.207,493.609 357.893,496.644C356.579,499.679 355.922,502.917 355.922,506.358C355.922,509.799 356.579,513.05 357.893,516.108C359.207,519.167 361,521.82 363.27,524.066C365.54,526.313 368.205,528.093 371.264,529.407C374.323,530.722 377.573,531.379 381.014,531.379Z" style="fill:rgb(54,85,143);"/>
    </g>
    <g transform="matrix(1,0,0,1,-101.297,-440.216)">
        <path d="M510.419,502.702L507.408,511.879L513.43,511.879L510.419,502.702Z" style="fill:rgb(54,85,143);"/>
    </g>
    <g transform="matrix(1,0,0,1,-101.297,-440.216)">
        <path d="M381.014,494.314C379.389,494.314 377.871,494.636 376.462,495.279C375.052,495.922 373.833,496.792 372.805,497.888C371.778,498.984 370.965,500.259 370.368,501.713C369.77,503.166 369.471,504.703 369.471,506.322C369.471,507.943 369.77,509.48 370.368,510.933C370.965,512.386 371.778,513.673 372.805,514.793C373.833,515.913 375.052,516.794 376.462,517.438C377.871,518.081 379.389,518.403 381.014,518.403C382.639,518.403 384.157,518.081 385.566,517.438C386.976,516.794 388.195,515.913 389.223,514.793C390.25,513.673 391.051,512.386 391.625,510.933C392.198,509.48 392.485,507.943 392.485,506.322C392.485,504.703 392.198,503.166 391.625,501.713C391.051,500.259 390.25,498.984 389.223,497.888C388.195,496.792 386.976,495.922 385.566,495.279C384.157,494.636 382.639,494.314 381.014,494.314Z" style="fill:rgb(54,85,143);"/>
    </g>
    <g transform="matrix(1.02961,0,0,1.02961,-152.181,-530.094)">
        <path d="M206.407,602L196.102,602L189.278,583.339L182.384,602L172.079,602L155.089,556.113L169.085,556.113L177.232,578.116L185.379,556.113L193.177,556.113L201.254,578.116L209.401,556.113L223.397,556.113L206.407,602Z" style="fill:rgb(54,85,143);"/>
        <path d="M244.356,603.393C241.014,603.393 237.857,602.754 234.886,601.478C231.915,600.201 229.327,598.472 227.122,596.29C224.917,594.108 223.177,591.532 221.9,588.561C220.624,585.59 219.985,582.434 219.985,579.091C219.985,575.749 220.624,572.604 221.9,569.656C223.177,566.709 224.917,564.132 227.122,561.927C229.327,559.722 231.915,557.981 234.886,556.705C237.857,555.428 241.014,554.79 244.356,554.79C247.698,554.79 250.855,555.428 253.826,556.705C256.797,557.981 259.385,559.711 261.59,561.892C263.795,564.074 265.536,566.651 266.812,569.621C268.089,572.592 268.727,575.749 268.727,579.091C268.727,582.434 268.089,585.59 266.812,588.561C265.536,591.532 263.795,594.108 261.59,596.29C259.385,598.472 256.797,600.201 253.826,601.478C250.855,602.754 247.698,603.393 244.356,603.393ZM244.356,567.393C242.778,567.393 241.304,567.706 239.935,568.331C238.565,568.956 237.381,569.8 236.383,570.865C235.385,571.929 234.596,573.167 234.016,574.579C233.436,575.991 233.146,577.483 233.146,579.057C233.146,580.63 233.436,582.123 234.016,583.535C234.596,584.946 235.385,586.196 236.383,587.284C237.381,588.371 238.565,589.227 239.935,589.853C241.304,590.477 242.778,590.789 244.356,590.789C245.934,590.789 247.408,590.477 248.778,589.853C250.147,589.227 251.331,588.371 252.329,587.284C253.327,586.196 254.105,584.946 254.662,583.535C255.219,582.123 255.497,580.63 255.497,579.057C255.497,577.483 255.219,575.991 254.662,574.579C254.105,573.167 253.327,571.929 252.329,570.865C251.331,569.8 250.147,568.956 248.778,568.331C247.408,567.706 245.934,567.393 244.356,567.393Z" style="fill:rgb(54,85,143);"/>
        <path d="M303.891,602L303.891,585.428L289.338,585.428L289.338,602L275.621,602L275.621,556.113L289.338,556.113L289.338,573.033L303.891,573.033L303.891,556.113L317.608,556.113L317.608,602L303.891,602Z" style="fill:rgb(54,85,143);"/>
        <path d="M365.236,572.355L365.236,602L352.563,602L338.428,579.788L338.428,602L325.477,602L325.477,556.113L338.149,556.113L352.285,578.465L352.285,556.113L355.04,556.113L365.236,572.355Z" style="fill:rgb(54,85,143);"/>
        <path d="M365.236,572.355L355.04,556.113L365.236,556.113L365.236,572.355Z" style="fill:rgb(251,241,232);"/>
        <path d="M419.479,603.393C416.136,603.393 412.98,602.754 410.009,601.478C407.038,600.201 404.45,598.472 402.245,596.29C400.04,594.108 398.299,591.532 397.023,588.561C395.746,585.59 395.108,582.434 395.108,579.091C395.108,575.749 395.746,572.604 397.023,569.656C398.299,566.709 400.04,564.132 402.245,561.927C404.45,559.722 407.038,557.981 410.009,556.705C412.98,555.428 416.136,554.79 419.479,554.79C422.821,554.79 425.978,555.428 428.948,556.705C431.919,557.981 434.507,559.711 436.712,561.892C438.917,564.074 440.658,566.651 441.935,569.621C443.211,572.592 443.85,575.749 443.85,579.091C443.85,582.434 443.211,585.59 441.935,588.561C440.658,591.532 438.917,594.108 436.712,596.29C434.507,598.472 431.919,600.201 428.948,601.478C425.978,602.754 422.821,603.393 419.479,603.393ZM419.479,567.393C417.9,567.393 416.426,567.706 415.057,568.331C413.688,568.956 412.504,569.8 411.506,570.865C410.508,571.929 409.719,573.167 409.138,574.579C408.558,575.991 408.268,577.483 408.268,579.057C408.268,580.63 408.558,582.123 409.138,583.535C409.719,584.946 410.508,586.196 411.506,587.284C412.504,588.371 413.688,589.227 415.057,589.853C416.426,590.477 417.9,590.789 419.479,590.789C421.057,590.789 422.531,590.477 423.9,589.853C425.27,589.227 426.453,588.371 427.451,587.284C428.449,586.196 429.227,584.946 429.784,583.535C430.341,582.123 430.62,580.63 430.62,579.057C430.62,577.483 430.341,575.991 429.784,574.579C429.227,573.167 428.449,571.929 427.451,570.865C426.453,569.8 425.27,568.956 423.9,568.331C422.531,567.706 421.057,567.393 419.479,567.393Z" style="fill:rgb(251,241,232);"/>
        <path d="M506.378,602L506.378,580.554L498.023,594.341C497.791,594.712 497.489,594.956 497.117,595.072C496.746,595.188 496.421,595.246 496.143,595.246C495.911,595.246 495.609,595.188 495.237,595.072C494.866,594.956 494.564,594.712 494.332,594.341L485.976,580.554L485.976,602L473.025,602L473.025,556.113L484.584,556.113C485.187,556.113 485.698,556.392 486.116,556.949L496.143,573.66L506.239,556.949C506.564,556.392 507.052,556.113 507.701,556.113L519.26,556.113L519.26,602L506.378,602Z" style="fill:rgb(251,241,232);"/>
        <path d="M554.006,602L551.708,595.803L538.618,595.803L536.32,602L522.811,602L539.592,556.113L550.733,556.113L567.515,602L554.006,602ZM545.163,575.54L542.238,584.453L548.088,584.453L545.163,575.54Z" style="fill:rgb(251,241,232);"/>
        <path d="M601.704,568.02L589.866,568.02L589.866,602L576.776,602L576.776,568.02L564.938,568.02L563.824,566.906L563.824,556.113L602.818,556.113L602.818,566.906L601.704,568.02Z" style="fill:rgb(251,241,232);"/>
    </g>
    <g transform="matrix(1.02961,0,0,1.02961,46.8706,-530.094)">
        <path d="M179.765,584.871L174.377,584.871L174.377,576.287L179.765,584.871Z" style="fill:rgb(54,85,143);"/>
    </g>
    <g transform="matrix(1.02961,0,0,1.02961,46.8706,-530.094)">
        <path d="M174.377,576.287L174.377,575.679L198.817,575.679L198.817,584.871L179.765,584.871L174.377,576.287Z" style="fill:rgb(251,241,232);"/>
    </g>
    <g transform="matrix(1.02961,0,0,1.02961,127.871,-530.094)">
        <rect x="174.377" y="575.679" width="24.441" height="9.191" style="fill:rgb(251,241,232);"/>
    </g>
</svg>
